<svg xmlns="http://www.w3.org/2000/svg" viewBox="0 0 900 560" font-family="Inter, -apple-system, system-ui, sans-serif">
  <defs>
    <linearGradient id="bg" x1="0" y1="0" x2="0" y2="1">
      <stop offset="0%" stop-color="#fafbfc"/>
      <stop offset="100%" stop-color="#f0f2f5"/>
    </linearGradient>
    <filter id="shadow" x="-2%" y="-2%" width="104%" height="104%">
      <feDropShadow dx="0" dy="1" stdDeviation="2" flood-opacity="0.08"/>
    </filter>
    <filter id="lineShadow">
      <feDropShadow dx="0" dy="1" stdDeviation="1.5" flood-opacity="0.15"/>
    </filter>
  </defs>

  <!-- Background -->
  <rect width="900" height="560" rx="12" fill="url(#bg)" stroke="#dde1e6" stroke-width="1"/>

  <!-- Title -->
  <text x="450" y="36" text-anchor="middle" font-size="18" font-weight="700" fill="#1a1a2e">Dense FA4 vs NSA Sparse Attention — NVIDIA B200</text>
  <text x="450" y="56" text-anchor="middle" font-size="12" fill="#6b7280">B=1, H=8, H_kv=2, D=128 | k=16 selected blocks, w=512 | bf16 | Fused CuteDSL kernels</text>

  <!-- Chart area: x=100..820, y=80..440 (log-log) -->
  <!-- X: 2^10..2^22 (1K..4M), 60px per octave -->
  <!-- Y: 0.1ms..100s, 6 decades, 60px per decade -->
  <!-- x = 100 + 60 * (log2(N) - 10) -->
  <!-- y = 440 - 60 * (log10(t_ms) + 1) -->

  <!-- Horizontal grid -->
  <g stroke="#e5e7eb" stroke-width="0.7" stroke-dasharray="4,3">
    <line x1="100" y1="80" x2="820" y2="80"/>
    <line x1="100" y1="140" x2="820" y2="140"/>
    <line x1="100" y1="200" x2="820" y2="200"/>
    <line x1="100" y1="260" x2="820" y2="260"/>
    <line x1="100" y1="320" x2="820" y2="320"/>
    <line x1="100" y1="380" x2="820" y2="380"/>
    <line x1="100" y1="440" x2="820" y2="440"/>
  </g>

  <!-- Y axis labels -->
  <g font-size="11" fill="#6b7280" text-anchor="end">
    <text x="92" y="84">100s</text>
    <text x="92" y="144">10s</text>
    <text x="92" y="204">1s</text>
    <text x="92" y="264">100ms</text>
    <text x="92" y="324">10ms</text>
    <text x="92" y="384">1ms</text>
    <text x="92" y="444">0.1ms</text>
  </g>
  <text x="20" y="260" text-anchor="middle" font-size="13" font-weight="600" fill="#374151" transform="rotate(-90, 20, 260)">Wall-clock time</text>

  <!-- Vertical grid -->
  <g stroke="#e5e7eb" stroke-width="0.7" stroke-dasharray="4,3">
    <line x1="100" y1="80" x2="100" y2="440"/>
    <line x1="160" y1="80" x2="160" y2="440"/>
    <line x1="220" y1="80" x2="220" y2="440"/>
    <line x1="280" y1="80" x2="280" y2="440"/>
    <line x1="340" y1="80" x2="340" y2="440"/>
    <line x1="400" y1="80" x2="400" y2="440"/>
    <line x1="460" y1="80" x2="460" y2="440"/>
    <line x1="520" y1="80" x2="520" y2="440"/>
    <line x1="580" y1="80" x2="580" y2="440"/>
    <line x1="640" y1="80" x2="640" y2="440"/>
    <line x1="700" y1="80" x2="700" y2="440"/>
    <line x1="760" y1="80" x2="760" y2="440"/>
    <line x1="820" y1="80" x2="820" y2="440"/>
  </g>

  <!-- X axis labels -->
  <g font-size="10" fill="#6b7280" text-anchor="middle">
    <text x="100" y="458">1K</text>
    <text x="160" y="458">2K</text>
    <text x="220" y="458">4K</text>
    <text x="280" y="458">8K</text>
    <text x="340" y="458">16K</text>
    <text x="400" y="458">32K</text>
    <text x="460" y="458">64K</text>
    <text x="520" y="458">128K</text>
    <text x="580" y="458">256K</text>
    <text x="640" y="458">512K</text>
    <text x="700" y="458">1M</text>
    <text x="760" y="458">2M</text>
    <text x="820" y="458">4M</text>
  </g>
  <text x="460" y="480" text-anchor="middle" font-size="13" font-weight="600" fill="#374151">Sequence length (tokens)</text>

  <!-- Axes -->
  <line x1="100" y1="440" x2="820" y2="440" stroke="#9ca3af" stroke-width="1.5"/>
  <line x1="100" y1="80" x2="100" y2="440" stroke="#9ca3af" stroke-width="1.5"/>

  <!--
    MEASURED DATA (B200, bf16, CUDA_VISIBLE_DEVICES isolated per run):
    Config: B=1, H=8, H_kv=2, D=128, k=16, w=512
    Fused compress, fused select, fused gating kernels active.
    All data measured end-to-end, no interpolation or scaling.

    Dense FA4 (from l=64 run, GPU 1):
    4K:   0.19ms    8K:   0.15ms    16K:  0.44ms    32K:  1.67ms
    64K:  8.17ms    128K: 32.03ms   256K: 126.72ms  512K: 506.70ms
    1M:   2026.53ms 2M:   7626.38ms 3M:   18150.16ms

    NSA l=32 (GPU 3):
    4K:   1.36ms    8K:   1.09ms    16K:  1.09ms    32K:  1.28ms
    64K:  2.30ms    128K: 5.90ms    256K: 18.67ms   512K: 66.43ms
    1M:   254.07ms  (7.97x vs dense)

    NSA l=64 (GPU 1):
    4K:   1.18ms    8K:   1.07ms    16K:  1.07ms    32K:  1.46ms
    64K:  1.87ms    128K: 4.11ms    256K: 11.51ms   512K: 37.54ms
    1M:   139.90ms  2M:   503.71ms  3M:   1117.56ms (16.24x vs dense)

    NSA l=128 (GPU 4):
    4K:   1.06ms    8K:   0.95ms    16K:  0.94ms    32K:  1.31ms
    64K:  2.03ms    128K: 3.16ms    256K: 8.05ms    512K: 23.94ms
    1M:   76.85ms   2M:   282.68ms  3M:   616.48ms  (29.44x vs dense)

    x = 100 + 60 * (log2(N) - 10)
    y = 440 - 60 * (log10(t_ms) + 1)
  -->

  <!-- ===== Dense FA4 ===== -->
  <polyline
    points="220,423.3 280,429.4 340,401.4 400,366.6 460,325.3 520,289.7 580,253.8 640,217.7 700,181.6 760,147.1 795,124.5"
    fill="none" stroke="#e74c3c" stroke-width="2.5" stroke-linecap="round" stroke-linejoin="round"
    filter="url(#lineShadow)"/>
  <g fill="#e74c3c">
    <circle cx="220" cy="423.3" r="3"/>
    <circle cx="280" cy="429.4" r="3"/>
    <circle cx="340" cy="401.4" r="3"/>
    <circle cx="400" cy="366.6" r="3"/>
    <circle cx="460" cy="325.3" r="3"/>
    <circle cx="520" cy="289.7" r="3"/>
    <circle cx="580" cy="253.8" r="3"/>
    <circle cx="640" cy="217.7" r="3"/>
    <circle cx="700" cy="181.6" r="3"/>
    <circle cx="760" cy="147.1" r="3"/>
    <circle cx="795" cy="124.5" r="3"/>
  </g>

  <!-- ===== NSA l=32 (fused CuteDSL) ===== -->
  <polyline
    points="220,372.0 280,377.8 340,377.8 400,373.6 460,358.3 520,333.7 580,303.7 640,270.7 700,235.7"
    fill="none" stroke="#a3e635" stroke-width="2" stroke-linecap="round" stroke-linejoin="round"
    stroke-dasharray="8,4"
    filter="url(#lineShadow)"/>
  <g fill="#a3e635">
    <circle cx="220" cy="372.0" r="2.5"/>
    <circle cx="280" cy="377.8" r="2.5"/>
    <circle cx="340" cy="377.8" r="2.5"/>
    <circle cx="400" cy="373.6" r="2.5"/>
    <circle cx="460" cy="358.3" r="2.5"/>
    <circle cx="520" cy="333.7" r="2.5"/>
    <circle cx="580" cy="303.7" r="2.5"/>
    <circle cx="640" cy="270.7" r="2.5"/>
    <circle cx="700" cy="235.7" r="2.5"/>
  </g>

  <!-- ===== NSA l=64 (fused CuteDSL) ===== -->
  <polyline
    points="220,375.7 280,378.2 340,378.2 400,370.1 460,363.7 520,343.2 580,316.3 640,285.5 700,251.3 760,217.9 795,197.1"
    fill="none" stroke="#22c55e" stroke-width="2.5" stroke-linecap="round" stroke-linejoin="round"
    filter="url(#lineShadow)"/>
  <g fill="#22c55e">
    <circle cx="220" cy="375.7" r="3"/>
    <circle cx="280" cy="378.2" r="3"/>
    <circle cx="340" cy="378.2" r="3"/>
    <circle cx="400" cy="370.1" r="3"/>
    <circle cx="460" cy="363.7" r="3"/>
    <circle cx="520" cy="343.2" r="3"/>
    <circle cx="580" cy="316.3" r="3"/>
    <circle cx="640" cy="285.5" r="3"/>
    <circle cx="700" cy="251.3" r="3"/>
    <circle cx="760" cy="217.9" r="3"/>
    <circle cx="795" cy="197.1" r="3"/>
  </g>

  <!-- ===== NSA l=128 (fused CuteDSL) ===== -->
  <polyline
    points="220,378.5 280,381.3 340,381.6 400,373.0 460,361.6 520,350.0 580,325.7 640,297.3 700,266.9 760,232.9 795,212.6"
    fill="none" stroke="#059669" stroke-width="2.5" stroke-linecap="round" stroke-linejoin="round"
    filter="url(#lineShadow)"/>
  <g fill="#059669">
    <circle cx="220" cy="378.5" r="3.5"/>
    <circle cx="280" cy="381.3" r="3.5"/>
    <circle cx="340" cy="381.6" r="3.5"/>
    <circle cx="400" cy="373.0" r="3.5"/>
    <circle cx="460" cy="361.6" r="3.5"/>
    <circle cx="520" cy="350.0" r="3.5"/>
    <circle cx="580" cy="325.7" r="3.5"/>
    <circle cx="640" cy="297.3" r="3.5"/>
    <circle cx="700" cy="266.9" r="3.5"/>
    <circle cx="760" cy="232.9" r="3.5"/>
    <circle cx="795" cy="212.6" r="3.5"/>
  </g>

  <!-- Speedup bracket: Dense vs NSA l=128 at N=3M -->
  <line x1="795" y1="127" x2="795" y2="210" stroke="#7c3aed" stroke-width="1.5"/>
  <line x1="791" y1="127" x2="799" y2="127" stroke="#7c3aed" stroke-width="1.5"/>
  <line x1="791" y1="210" x2="799" y2="210" stroke="#7c3aed" stroke-width="1.5"/>

  <!-- Speedup labels at N=3M (vs dense) -->
  <g font-size="9" font-weight="600">
    <text x="808" y="193" fill="#a3e635">8.0x</text>
    <text x="808" y="203" fill="#22c55e">16.2x</text>
    <text x="808" y="213" fill="#059669">29.4x</text>
  </g>

  <!-- Scaling annotations -->
  <g font-size="9" fill="#6b7280" font-style="italic">
    <text x="775" y="115" text-anchor="end">O(N&#xB2;)</text>
  </g>

  <!-- "l" labels at right side of each NSA curve -->
  <g font-size="10" font-weight="600">
    <text x="708" y="232" fill="#a3e635">l=32</text>
    <text x="808" y="200" fill="#22c55e">l=64</text>
    <text x="808" y="218" fill="#059669">l=128</text>
  </g>

  <!-- Crossover annotation -->
  <text x="380" y="395" text-anchor="middle" font-size="8" fill="#7c3aed" font-weight="500">NSA faster than dense</text>
  <text x="380" y="404" text-anchor="middle" font-size="8" fill="#7c3aed">above N ~24K</text>
  <line x1="380" y1="375" x2="380" y2="387" stroke="#7c3aed" stroke-width="0.8" stroke-dasharray="2,2"/>

  <!-- Legend -->
  <g transform="translate(110, 495)" filter="url(#shadow)">
    <rect x="0" y="0" width="700" height="52" rx="8" fill="white" stroke="#e5e7eb" stroke-width="1"/>

    <line x1="14" y1="16" x2="34" y2="16" stroke="#e74c3c" stroke-width="2.5" stroke-linecap="round"/>
    <circle cx="24" cy="16" r="3" fill="#e74c3c"/>
    <text x="40" y="20" font-size="10" fill="#374151" font-weight="500">Dense FA4</text>

    <line x1="115" y1="16" x2="135" y2="16" stroke="#a3e635" stroke-width="2" stroke-dasharray="8,4"/>
    <circle cx="125" cy="16" r="2.5" fill="#a3e635"/>
    <text x="141" y="20" font-size="10" fill="#374151" font-weight="500">NSA l=32</text>

    <line x1="230" y1="16" x2="250" y2="16" stroke="#22c55e" stroke-width="2.5"/>
    <circle cx="240" cy="16" r="3" fill="#22c55e"/>
    <text x="256" y="20" font-size="10" fill="#374151" font-weight="500">NSA l=64</text>

    <line x1="340" y1="16" x2="360" y2="16" stroke="#059669" stroke-width="2.5"/>
    <circle cx="350" cy="16" r="3.5" fill="#059669"/>
    <text x="366" y="20" font-size="10" fill="#374151" font-weight="500">NSA l=128</text>

    <text x="14" y="44" font-size="9" fill="#9ca3af">All data measured on B200 (180GB). B=1, H=8, H_kv=2, D=128. Fused compress, select, gating kernels. No interpolated points.</text>
  </g>
</svg>
